# xmcd
#
# Track frame offsets: 
#        150
#        10811
#        54408
#        63816
#        93661
#        98951
#        188265
#
# Disc length: 2608 seconds
#
# Revision: 1
# Processed by: cddbd v1.5.2PL0 Copyright (c) Steve Scherf et al.
# Submitted via: ExactAudioCopy v1.3
#
DISCID=4b0a2e07
DTITLE=The Doors - Live in New York - Felt Forum [CD3)
DYEAR=1970
DGENRE=Rock
TTITLE0=(Tuning,Breather) (Sat. Eve. Jan. 17 1970 - Second Show)
TTITLE1=Light My Fire (Sat. Eve. Jan. 17 1970 - Second Show)
TTITLE2=(Hey, Mr. Light Man!) (Sat. Eve. Jan. 17 1970 - Second Show)
TTITLE3=Soul Kitchen (Sat. Eve. Jan. 17 1970 - Second Show)
TTITLE4=(Jim's Fish Joke) (Sat. Eve. Jan. 17 1970 - Second Show)
TTITLE5=The End (Sat. Eve. Jan. 17 1970 - Second Show)
TTITLE6=(End Of Show) (Sat. Eve. Jan. 17 1970 - Second Show)
EXTD=
EXTT0=
EXTT1=
EXTT2=
EXTT3=
EXTT4=
EXTT5=
EXTT6=
PLAYORDER=
